<svg width="289" height="216" viewBox="0 0 289 216" fill="none" xmlns="http://www.w3.org/2000/svg">
<path d="M288.414 115.915C289.195 115.138 289.195 113.872 288.414 113.087L275.687 100.292C274.906 99.5067 273.64 99.5 272.858 100.277C272.077 101.054 272.077 102.32 272.858 103.105L284.172 114.479L272.858 125.733C272.077 126.51 272.077 127.776 272.858 128.561C273.639 129.346 274.905 129.353 275.686 128.576L288.414 115.915ZM10.5073 115.039L287 116.493L287 112.493L10.5074 111.039L10.5073 115.039Z" fill="#EB5569"/>
<path d="M1.58025 111.578C0.799196 112.355 0.799163 113.622 1.58018 114.407L14.3076 127.202C15.0886 127.987 16.3549 127.994 17.136 127.217C17.917 126.44 17.9171 125.173 17.1361 124.388L5.8228 113.015L17.1366 101.761C17.9177 100.984 17.9177 99.7175 17.1367 98.9323C16.3557 98.1472 15.0894 98.1405 14.3083 98.9174L1.58025 111.578ZM269.72 112.403L2.99446 111L2.99436 115L269.72 116.403L269.72 112.403Z" fill="#EB5569"/>
<path d="M120.904 190.36C116.872 190.36 113.824 189.256 111.76 187.048C109.696 184.792 108.664 181.792 108.664 178.048C108.664 175.936 108.976 173.368 109.6 170.344L114.064 149.752C114.16 149.368 114.376 148.312 114.712 146.584C115.096 144.856 115.288 142.984 115.288 140.968C115.288 139.816 115.048 138.952 114.568 138.376C114.136 137.8 113.536 137.512 112.768 137.512C111.328 137.512 109.648 138.208 107.728 139.6C105.808 140.944 103.792 143.032 101.68 145.864C101.008 146.776 100.264 147.232 99.448 147.232C98.776 147.232 98.176 146.92 97.648 146.296C97.168 145.624 96.928 144.88 96.928 144.064C96.928 142.576 97.6 140.896 98.944 139.024C103.84 132.304 109.576 128.944 116.152 128.944C119.08 128.944 121.36 129.832 122.992 131.608C124.672 133.384 125.512 136 125.512 139.456C125.512 141.904 125.344 144.16 125.008 146.224C124.672 148.288 124.096 151.096 123.28 154.648L120.328 167.824C120.232 168.256 120.064 169.024 119.824 170.128C119.584 171.232 119.392 172.288 119.248 173.296C119.104 174.256 119.032 175.216 119.032 176.176C119.032 177.712 119.464 178.936 120.328 179.848C121.192 180.76 122.416 181.216 124 181.216C126.88 181.216 129.784 179.68 132.712 176.608C135.688 173.536 138.424 168.592 140.92 161.776C143.464 154.912 145.432 146.152 146.824 135.496C147.16 133.048 147.64 131.344 148.264 130.384C148.936 129.424 150.208 128.944 152.08 128.944C153.76 128.944 155.008 129.448 155.824 130.456C156.64 131.464 157.048 133.096 157.048 135.352C157.048 136.648 156.88 138.352 156.544 140.464C156.256 142.576 155.8 145.528 155.176 149.32C153.88 156.664 152.848 163.408 152.08 169.552C151.696 172.336 151.504 174.4 151.504 175.744C151.504 177.712 151.936 179.224 152.8 180.28C153.712 181.288 154.912 181.792 156.4 181.792C157.984 181.792 159.52 181.264 161.008 180.208C162.544 179.152 164.344 177.4 166.408 174.952C166.984 174.28 167.632 173.944 168.352 173.944C168.976 173.944 169.456 174.232 169.792 174.808C170.176 175.384 170.368 176.176 170.368 177.184C170.368 179.056 169.912 180.544 169 181.648C166.504 184.672 164.032 186.88 161.584 188.272C159.136 189.664 156.568 190.36 153.88 190.36C149.896 190.36 146.848 189.352 144.736 187.336C142.624 185.272 141.568 182.608 141.568 179.344C141.568 177.52 141.952 173.968 142.72 168.688C140.32 175.744 137.272 181.12 133.576 184.816C129.928 188.512 125.704 190.36 120.904 190.36ZM177.903 191.944C175.407 191.944 173.487 191.368 172.143 190.216C170.847 189.064 170.199 187.768 170.199 186.328C170.199 185.08 170.655 184 171.567 183.088C172.479 182.176 173.823 181.72 175.599 181.72C176.223 181.72 176.943 181.792 177.759 181.936C178.623 182.032 179.271 182.104 179.703 182.152C179.655 180.904 179.367 179.728 178.839 178.624C178.359 177.52 177.735 176.464 176.967 175.456C176.199 174.4 175.479 173.488 174.807 172.72C173.319 175.552 171.831 177.904 170.343 179.776C168.903 181.648 167.319 183.424 165.591 185.104C164.727 185.968 163.815 186.4 162.855 186.4C162.087 186.4 161.463 186.136 160.983 185.608C160.503 185.032 160.263 184.336 160.263 183.52C160.263 182.56 160.599 181.672 161.271 180.856L162.207 179.704C164.847 176.44 166.839 173.752 168.183 171.64C169.047 170.248 169.911 168.592 170.775 166.672C171.687 164.752 172.863 162.136 174.303 158.824C175.215 156.712 177.111 155.656 179.991 155.656C181.335 155.656 182.271 155.776 182.799 156.016C183.327 156.256 183.591 156.64 183.591 157.168C183.591 157.456 183.495 157.912 183.303 158.536C183.111 159.16 182.847 159.784 182.511 160.408C181.647 162.136 181.215 163.6 181.215 164.8C181.215 165.52 181.455 166.312 181.935 167.176C182.463 168.04 183.255 169.12 184.311 170.416C185.847 172.432 186.999 174.16 187.767 175.6C188.583 176.992 188.991 178.528 188.991 180.208C188.991 182.224 188.511 184.144 187.551 185.968C186.639 187.744 185.343 189.184 183.663 190.288C181.983 191.392 180.063 191.944 177.903 191.944Z" fill="#EB5569"/>
<path d="M76.496 47.92C76.496 52 75.056 55.528 72.176 58.504C69.296 61.432 65.096 63.544 59.576 64.84C62.552 65.656 64.808 67 66.344 68.872C67.88 70.696 68.648 72.808 68.648 75.208C68.648 79 67.448 82.288 65.048 85.072C62.696 87.856 59.24 90.016 54.68 91.552C50.12 93.04 44.624 93.784 38.192 93.784C35.792 93.784 33.872 93.712 32.432 93.568C32.384 94.912 31.808 95.92 30.704 96.592C29.6 97.264 28.184 97.6 26.456 97.6C24.728 97.6 23.528 97.216 22.856 96.448C22.232 95.68 21.968 94.552 22.064 93.064C22.496 86.344 23.336 79.312 24.584 71.968C25.832 64.576 27.416 57.448 29.336 50.584C29.672 49.384 30.344 48.544 31.352 48.064C32.36 47.584 33.68 47.344 35.312 47.344C38.24 47.344 39.704 48.16 39.704 49.792C39.704 50.464 39.56 51.232 39.272 52.096C38.024 55.84 36.776 60.928 35.528 67.36C34.28 73.744 33.392 79.84 32.864 85.648C35.168 85.84 37.04 85.936 38.48 85.936C45.2 85.936 50.12 84.976 53.24 83.056C56.408 81.088 57.992 78.592 57.992 75.568C57.992 73.456 57.08 71.68 55.256 70.24C53.48 68.8 50.48 68.008 46.256 67.864C45.296 67.816 44.624 67.576 44.24 67.144C43.856 66.712 43.664 66.016 43.664 65.056C43.664 63.664 43.952 62.536 44.528 61.672C45.104 60.808 46.16 60.352 47.696 60.304C51.104 60.208 54.176 59.704 56.912 58.792C59.696 57.88 61.88 56.608 63.464 54.976C65.048 53.296 65.84 51.352 65.84 49.144C65.84 46.36 64.472 44.176 61.736 42.592C59 40.96 54.8 40.144 49.136 40.144C44 40.144 39.032 40.816 34.232 42.16C29.432 43.456 25.352 45.112 21.992 47.128C20.456 48.04 19.16 48.496 18.104 48.496C17.24 48.496 16.568 48.208 16.088 47.632C15.656 47.008 15.44 46.24 15.44 45.328C15.44 44.128 15.68 43.096 16.16 42.232C16.688 41.368 17.912 40.384 19.832 39.28C23.864 36.976 28.592 35.176 34.016 33.88C39.44 32.584 44.984 31.936 50.648 31.936C59.336 31.936 65.816 33.4 70.088 36.328C74.36 39.256 76.496 43.12 76.496 47.92ZM106.591 77.944C107.215 77.944 107.695 78.232 108.031 78.808C108.415 79.384 108.607 80.176 108.607 81.184C108.607 83.104 108.151 84.592 107.239 85.648C105.463 87.808 102.943 89.8 99.6794 91.624C96.4634 93.448 93.0074 94.36 89.3114 94.36C84.2714 94.36 80.3594 92.992 77.5754 90.256C74.7914 87.52 73.3994 83.776 73.3994 79.024C73.3994 75.712 74.0954 72.64 75.4874 69.808C76.8794 66.928 78.7994 64.648 81.2474 62.968C83.7434 61.288 86.5514 60.448 89.6714 60.448C92.4554 60.448 94.6874 61.288 96.3674 62.968C98.0474 64.6 98.8874 66.832 98.8874 69.664C98.8874 72.976 97.6874 75.832 95.2874 78.232C92.9354 80.584 88.9274 82.456 83.2634 83.848C84.4634 86.056 86.7434 87.16 90.1034 87.16C92.2634 87.16 94.7114 86.416 97.4474 84.928C100.231 83.392 102.631 81.4 104.647 78.952C105.223 78.28 105.871 77.944 106.591 77.944ZM88.4474 67.504C86.6714 67.504 85.1594 68.536 83.9114 70.6C82.7114 72.664 82.1114 75.16 82.1114 78.088V78.232C84.9434 77.56 87.1754 76.552 88.8074 75.208C90.4394 73.864 91.2554 72.304 91.2554 70.528C91.2554 69.616 90.9914 68.896 90.4634 68.368C89.9834 67.792 89.3114 67.504 88.4474 67.504ZM134.857 77.944C135.481 77.944 135.961 78.232 136.297 78.808C136.681 79.384 136.873 80.176 136.873 81.184C136.873 83.104 136.417 84.592 135.505 85.648C133.441 88.192 131.185 90.28 128.737 91.912C126.289 93.544 123.481 94.36 120.313 94.36C110.521 94.36 105.625 87.472 105.625 73.696C105.625 71.584 105.697 69.448 105.841 67.288H103.033C101.593 67.288 100.609 67.024 100.081 66.496C99.6011 65.968 99.3611 65.128 99.3611 63.976C99.3611 61.288 100.441 59.944 102.601 59.944H106.705C107.521 54.664 108.769 49.84 110.449 45.472C112.129 41.104 114.145 37.624 116.497 35.032C118.897 32.44 121.465 31.144 124.201 31.144C126.217 31.144 127.801 32.032 128.953 33.808C130.105 35.584 130.681 37.816 130.681 40.504C130.681 47.944 127.561 54.424 121.321 59.944H129.385C130.153 59.944 130.705 60.112 131.041 60.448C131.377 60.784 131.545 61.408 131.545 62.32C131.545 65.632 128.833 67.288 123.409 67.288H114.625C114.529 69.688 114.481 71.56 114.481 72.904C114.481 77.896 115.057 81.4 116.209 83.416C117.409 85.432 119.281 86.44 121.825 86.44C123.889 86.44 125.713 85.816 127.297 84.568C128.881 83.32 130.753 81.448 132.913 78.952C133.489 78.28 134.137 77.944 134.857 77.944ZM122.257 38.056C121.537 38.056 120.721 38.968 119.809 40.792C118.945 42.568 118.105 45.064 117.289 48.28C116.521 51.448 115.873 54.976 115.345 58.864C118.177 56.416 120.289 53.68 121.681 50.656C123.121 47.584 123.841 44.8 123.841 42.304C123.841 39.472 123.313 38.056 122.257 38.056ZM186.902 72.112C187.046 72.064 187.286 72.04 187.622 72.04C188.342 72.04 188.894 72.28 189.278 72.76C189.662 73.24 189.854 73.888 189.854 74.704C189.854 76.192 189.566 77.368 188.99 78.232C188.414 79.048 187.55 79.648 186.398 80.032C184.19 80.752 181.838 81.112 179.342 81.112C177.23 81.112 175.238 80.824 173.366 80.248C171.974 82.504 170.438 84.832 168.758 87.232C166.838 89.968 165.182 91.84 163.79 92.848C162.446 93.856 160.91 94.36 159.182 94.36C157.262 94.36 155.798 93.616 154.79 92.128C153.83 90.64 153.23 88.192 152.99 84.784L152.63 79.528C151.142 83.56 149.798 86.632 148.598 88.744C147.446 90.856 146.27 92.32 145.07 93.136C143.918 93.952 142.55 94.36 140.966 94.36C138.998 94.36 137.438 93.592 136.286 92.056C135.182 90.52 134.486 88.096 134.198 84.784C133.622 78.064 133.334 72.184 133.334 67.144V64.624C133.382 63.04 133.814 61.936 134.63 61.312C135.446 60.688 136.67 60.376 138.302 60.376C139.55 60.376 140.462 60.664 141.038 61.24C141.662 61.768 141.974 62.68 141.974 63.976C141.974 69.496 142.31 76.672 142.982 85.504C146.246 78.64 149.246 71.488 151.982 64.048C152.51 62.608 153.134 61.648 153.854 61.168C154.622 60.64 155.534 60.376 156.59 60.376C157.886 60.376 158.774 60.64 159.254 61.168C159.782 61.696 160.046 62.632 160.046 63.976C160.046 69.496 160.382 76.672 161.054 85.504C163.934 81.232 166.094 77.824 167.534 75.28C166.814 73.888 166.454 72.232 166.454 70.312C166.454 68.68 166.814 67.096 167.534 65.56C168.254 64.024 169.238 62.776 170.486 61.816C171.734 60.856 173.15 60.376 174.734 60.376C176.126 60.376 177.254 60.88 178.118 61.888C178.982 62.848 179.414 64.264 179.414 66.136C179.414 68.296 178.838 70.768 177.686 73.552C179.51 73.456 181.934 73.096 184.958 72.472L186.902 72.112ZM215.716 77.944C216.34 77.944 216.82 78.232 217.156 78.808C217.54 79.384 217.732 80.176 217.732 81.184C217.732 83.104 217.276 84.592 216.364 85.648C214.588 87.808 212.068 89.8 208.804 91.624C205.588 93.448 202.132 94.36 198.436 94.36C193.396 94.36 189.484 92.992 186.7 90.256C183.916 87.52 182.524 83.776 182.524 79.024C182.524 75.712 183.22 72.64 184.612 69.808C186.004 66.928 187.924 64.648 190.372 62.968C192.868 61.288 195.676 60.448 198.796 60.448C201.58 60.448 203.812 61.288 205.492 62.968C207.172 64.6 208.012 66.832 208.012 69.664C208.012 72.976 206.812 75.832 204.412 78.232C202.06 80.584 198.052 82.456 192.388 83.848C193.588 86.056 195.868 87.16 199.228 87.16C201.388 87.16 203.836 86.416 206.572 84.928C209.356 83.392 211.756 81.4 213.772 78.952C214.348 78.28 214.996 77.944 215.716 77.944ZM197.572 67.504C195.796 67.504 194.284 68.536 193.036 70.6C191.836 72.664 191.236 75.16 191.236 78.088V78.232C194.068 77.56 196.3 76.552 197.932 75.208C199.564 73.864 200.38 72.304 200.38 70.528C200.38 69.616 200.116 68.896 199.588 68.368C199.108 67.792 198.436 67.504 197.572 67.504ZM243.982 77.944C244.606 77.944 245.086 78.232 245.422 78.808C245.806 79.384 245.998 80.176 245.998 81.184C245.998 83.104 245.542 84.592 244.63 85.648C242.854 87.808 240.334 89.8 237.07 91.624C233.854 93.448 230.398 94.36 226.702 94.36C221.662 94.36 217.75 92.992 214.966 90.256C212.182 87.52 210.79 83.776 210.79 79.024C210.79 75.712 211.486 72.64 212.878 69.808C214.27 66.928 216.19 64.648 218.638 62.968C221.134 61.288 223.942 60.448 227.062 60.448C229.846 60.448 232.078 61.288 233.758 62.968C235.438 64.6 236.278 66.832 236.278 69.664C236.278 72.976 235.078 75.832 232.678 78.232C230.326 80.584 226.318 82.456 220.654 83.848C221.854 86.056 224.134 87.16 227.494 87.16C229.654 87.16 232.102 86.416 234.838 84.928C237.622 83.392 240.022 81.4 242.038 78.952C242.614 78.28 243.262 77.944 243.982 77.944ZM225.838 67.504C224.062 67.504 222.55 68.536 221.302 70.6C220.102 72.664 219.502 75.16 219.502 78.088V78.232C222.334 77.56 224.566 76.552 226.198 75.208C227.83 73.864 228.646 72.304 228.646 70.528C228.646 69.616 228.382 68.896 227.854 68.368C227.374 67.792 226.702 67.504 225.838 67.504ZM245.248 94.36C243.424 94.36 242.128 93.4 241.36 91.48C240.64 89.56 240.28 86.488 240.28 82.264C240.28 76.024 241.168 70.096 242.944 64.48C243.376 63.088 244.072 62.08 245.032 61.456C246.04 60.784 247.432 60.448 249.208 60.448C250.168 60.448 250.84 60.568 251.224 60.808C251.608 61.048 251.8 61.504 251.8 62.176C251.8 62.944 251.44 64.672 250.72 67.36C250.24 69.28 249.856 70.96 249.568 72.4C249.28 73.84 249.04 75.616 248.848 77.728C250.432 73.6 252.208 70.24 254.176 67.648C256.144 65.056 258.064 63.208 259.936 62.104C261.856 61 263.608 60.448 265.192 60.448C266.728 60.448 267.88 60.856 268.648 61.672C269.464 62.44 269.872 63.592 269.872 65.128C269.872 66.376 269.608 68.728 269.08 72.184C268.6 75.112 268.216 77.896 267.928 80.536C267.64 83.128 267.496 86.032 267.496 89.248C267.496 91.072 267.112 92.392 266.344 93.208C265.624 93.976 264.424 94.36 262.744 94.36C261.16 94.36 260.008 93.952 259.288 93.136C258.568 92.32 258.208 91.096 258.208 89.464C258.208 87.544 258.544 84.376 259.216 79.96C259.792 76.12 260.08 73.672 260.08 72.616C260.08 71.848 259.816 71.464 259.288 71.464C258.664 71.464 257.776 72.28 256.624 73.912C255.52 75.496 254.368 77.608 253.168 80.248C252.016 82.888 251.08 85.672 250.36 88.6C249.832 90.856 249.208 92.392 248.488 93.208C247.816 93.976 246.736 94.36 245.248 94.36Z" fill="#00B89C"/>
</svg>
